<?xml version="1.0"?><svg width="300" height="300" xmlns="http://www.w3.org/2000/svg">
 <title>search icon</title>

 <metadata id="metadata12220">image/svg+xmlSergio Luiz Araujo Silvasearchiconsinformaticcomputer</metadata>
 <g>
  <title>Layer 1</title>
  <rect id="svg_1" height="313.00001" width="328.000012" y="-7.000007" x="-27.500014" stroke-width="5" stroke="#365e91" fill="#365e91"/>
  <path fill="#ffffff" stroke-width="9.756173" id="path12423" d="m37.938999,39.085999c-43.272999,43.272003 -43.378999,114.158997 -0.105999,157.432007c36.663002,36.662994 93.202003,42.25 135.921013,16.765991l76.343994,74.235016c10.507004,10.197998 27.085007,9.820984 37.116989,-0.844025c10.03299,-10.664978 9.769989,-27.445984 -0.738007,-37.643982l-75.182983,-72.863998c26.361008,-42.847 21.008011,-100.045006 -16.028,-137.081009c-43.27301,-43.273008 -114.054993,-43.273008 -157.327007,0l0,0l0,0l0,0zm31.739002,31.738998c26.101997,-26.101997 67.745995,-26.101997 93.848,0c26.102005,26.102005 26.102005,67.746002 0,93.848007c-26.102005,26.10199 -67.746002,26.10199 -93.848,0c-26.102001,-26.102005 -26.102001,-67.746002 0,-93.848007z"/>
  <rect id="svg_2" height="16" width="16" y="178" x="169.5" stroke-width="5" stroke="#ffffff" fill="#ffffff"/>
 </g>
</svg>